<svg xmlns="http://www.w3.org/2000/svg" viewBox="0 0 800 500" width="100%" height="100%">
  <defs>
    <linearGradient id="projBg" x1="0%" y1="0%" x2="100%" y2="100%">
      <stop offset="0%" stop-color="#020617" />
      <stop offset="100%" stop-color="#0b1320" />
    </linearGradient>
    <linearGradient id="btnGrad" x1="0%" y1="0%" x2="100%" y2="0%">
      <stop offset="0%" stop-color="#06b6d4" />
      <stop offset="100%" stop-color="#3b82f6" />
    </linearGradient>
  </defs>
  <rect width="100%" height="100%" fill="url(#projBg)" rx="12" />
  
  <!-- Browser window mockup -->
  <rect x="30" y="30" width="740" height="440" rx="8" fill="#0f172a" stroke="#1e293b" stroke-width="1.5" />
  <circle cx="55" cy="50" r="5" fill="#ef4444" />
  <circle cx="70" cy="50" r="5" fill="#eab308" />
  <circle cx="85" cy="50" r="5" fill="#22c55e" />
  <rect x="110" y="40" width="550" height="20" rx="4" fill="#020617" />
  <text x="385" y="54" text-anchor="middle" font-family="'Poppins', sans-serif" font-size="10" fill="#475569">https://www.codenova.com/portfolio/alphadev industries</text>

  <!-- Mock Web Application UI -->
  <!-- Sidebar -->
  <rect x="40" y="80" width="60" height="380" fill="#0b1320" />
  <rect x="50" y="100" width="40" height="8" rx="4" fill="#3b82f6" />
  <rect x="50" y="120" width="40" height="8" rx="4" fill="#1e293b" />
  <rect x="50" y="140" width="40" height="8" rx="4" fill="#1e293b" />
  <rect x="50" y="160" width="40" height="8" rx="4" fill="#1e293b" />

  <!-- Main Grid -->
  <rect x="120" y="95" width="480" height="350" rx="6" fill="#1e293b" stroke="#334155" stroke-width="1" />
  
  <!-- App Details -->
  <text x="140" y="135" font-family="'Poppins', sans-serif" font-size="22" font-weight="800" fill="#ffffff">IoT Asset Telemetry Console</text>
  <text x="140" y="160" font-family="'Poppins', sans-serif" font-size="13" font-weight="600" fill="#06b6d4">Client: AlphaDev Industries</text>
  
  <rect x="140" y="185" width="220" height="8" rx="4" fill="#475569" />
  <rect x="140" y="200" width="300" height="8" rx="4" fill="#475569" />
  <rect x="140" y="215" width="180" height="8" rx="4" fill="#475569" />

  <!-- Miniature mock charts -->
  <rect x="140" y="250" width="130" height="150" rx="6" fill="#0b1320" />
  <rect x="160" y="360" width="20" height="20" fill="#ef4444" />
  <rect x="195" y="320" width="20" height="60" fill="#3b82f6" />
  <rect x="230" y="290" width="20" height="90" fill="#22c55e" />

  <rect x="290" y="250" width="290" height="150" rx="6" fill="#0b1320" />
  <path d="M310,360 Q360,280 410,340 T510,290 T560,320" fill="none" stroke="url(#btnGrad)" stroke-width="3" />
  
  <!-- Right control pane -->
  <rect x="615" y="95" width="140" height="350" rx="6" fill="#0b1320" />
  <circle cx="685" cy="150" r="35" fill="none" stroke="#1e293b" stroke-width="4" />
  <circle cx="685" cy="150" r="35" fill="none" stroke="#06b6d4" stroke-width="4" stroke-linecap="round" stroke-dasharray="140 220" />
  <text x="685" y="155" text-anchor="middle" font-family="'Poppins', sans-serif" font-size="14" font-weight="700" fill="#ffffff">64%</text>
</svg>